<svg width="307" height="307" viewBox="0 0 307 307" fill="none" xmlns="http://www.w3.org/2000/svg">
<g clip-path="url(#clip0_25_4593)">
<g opacity="0.7" clip-path="url(#clip1_25_4593)">
<circle cx="252.973" cy="237.459" r="0.732241" fill="white" fill-opacity="0.3"/>
<circle cx="196.728" cy="257.287" r="0.540814" fill="white" fill-opacity="0.6"/>
<circle cx="43.721" cy="198.87" r="0.680986" fill="white" fill-opacity="0.3"/>
<circle cx="193.211" cy="206.222" r="0.525539" fill="white" fill-opacity="0.6"/>
<circle cx="153.314" cy="274.93" r="0.667573" fill="white" fill-opacity="0.5"/>
<circle cx="203.702" cy="57.0614" r="0.507457" fill="white" fill-opacity="0.5"/>
<circle cx="304.375" cy="148.225" r="0.583758" fill="white" fill-opacity="0.6"/>
<circle cx="202.337" cy="106.245" r="0.644319" fill="white" fill-opacity="0.5"/>
<circle cx="250.328" cy="100.184" r="0.589196" fill="white" fill-opacity="0.5"/>
<circle cx="122.742" cy="296.909" r="0.62486" fill="white" fill-opacity="0.4"/>
<circle cx="67.5779" cy="292.794" r="0.51348" fill="white" fill-opacity="0.6"/>
<circle cx="74.1731" cy="174.269" r="0.603291" fill="white" fill-opacity="0.5"/>
<circle cx="195.928" cy="274.503" r="0.74077" fill="white" fill-opacity="0.5"/>
<circle cx="148.779" cy="155.285" r="0.637019" fill="white" fill-opacity="0.6"/>
<circle cx="54.2482" cy="230.417" r="0.697427" fill="white" fill-opacity="0.6"/>
<circle cx="23.1555" cy="97.7268" r="0.634038" fill="white" fill-opacity="0.5"/>
<circle cx="88.6601" cy="83.655" r="0.575619" fill="white" fill-opacity="0.4"/>
<circle cx="295.369" cy="160.739" r="0.586653" fill="white" fill-opacity="0.3"/>
<circle cx="47.209" cy="160.318" r="0.665061" fill="white" fill-opacity="0.4"/>
<circle cx="192.8" cy="87.6995" r="0.616523" fill="white" fill-opacity="0.4"/>
<circle cx="16.7374" cy="283.493" r="0.722228" fill="white" fill-opacity="0.6"/>
<circle cx="303.937" cy="192.33" r="0.646941" fill="white" fill-opacity="0.4"/>
<circle cx="114.696" cy="20.1047" r="0.586112" fill="white" fill-opacity="0.3"/>
<circle cx="78.6718" cy="210.298" r="0.597066" fill="white" fill-opacity="0.5"/>
<circle cx="115.195" cy="187.264" r="0.585553" fill="white" fill-opacity="0.6"/>
<circle cx="138.802" cy="216.877" r="0.670174" fill="white" fill-opacity="0.5"/>
<circle cx="76.299" cy="101.323" r="0.726699" fill="white" fill-opacity="0.4"/>
<circle cx="91.2505" cy="48.7095" r="0.66358" fill="white" fill-opacity="0.5"/>
<circle cx="37.5684" cy="158.685" r="0.533682" fill="white" fill-opacity="0.5"/>
<circle cx="150.718" cy="110.179" r="0.573542" fill="white" fill-opacity="0.3"/>
<circle cx="135.177" cy="244.282" r="0.548846" fill="white" fill-opacity="0.6"/>
<circle cx="65.7965" cy="114.343" r="0.734028" fill="white" fill-opacity="0.5"/>
<circle cx="216.887" cy="218.388" r="0.680317" fill="white" fill-opacity="0.5"/>
<circle cx="234.942" cy="262.469" r="0.717684" fill="white" fill-opacity="0.4"/>
<circle cx="100.176" cy="107.183" r="0.581399" fill="white" fill-opacity="0.4"/>
<circle cx="51.2232" cy="158.326" r="0.675303" fill="white" fill-opacity="0.5"/>
<circle cx="221.835" cy="70.6891" r="0.62223" fill="white" fill-opacity="0.4"/>
<circle cx="257.426" cy="137.811" r="0.680073" fill="white" fill-opacity="0.4"/>
<circle cx="54.6109" cy="106.661" r="0.559585" fill="white" fill-opacity="0.4"/>
<circle cx="205.423" cy="97.3196" r="0.727039" fill="white" fill-opacity="0.6"/>
<circle cx="284.819" cy="292.828" r="0.547306" fill="white" fill-opacity="0.3"/>
<circle cx="120.255" cy="205.837" r="0.640611" fill="white" fill-opacity="0.4"/>
<circle cx="293.384" cy="287.878" r="0.602953" fill="white" fill-opacity="0.5"/>
<circle cx="102.747" cy="161.804" r="0.650242" fill="white" fill-opacity="0.4"/>
<circle cx="1.73994" cy="235.965" r="0.739456" fill="white" fill-opacity="0.3"/>
<circle cx="301.466" cy="246.413" r="0.678056" fill="white" fill-opacity="0.4"/>
<circle cx="238.874" cy="242.377" r="0.64527" fill="white" fill-opacity="0.4"/>
<circle cx="51.1574" cy="269.867" r="0.609524" fill="white" fill-opacity="0.6"/>
<circle cx="128.655" cy="267.788" r="0.53261" fill="white" fill-opacity="0.3"/>
<circle cx="5.18446" cy="202.875" r="0.681043" fill="white" fill-opacity="0.6"/>
<circle cx="120.345" cy="3.23284" r="0.730399" fill="white" fill-opacity="0.5"/>
<circle cx="157.699" cy="126.169" r="0.548644" fill="white" fill-opacity="0.6"/>
<circle cx="70.5906" cy="266.278" r="0.524174" fill="white" fill-opacity="0.6"/>
<circle cx="152.876" cy="265.985" r="0.730839" fill="white" fill-opacity="0.4"/>
<circle cx="198.292" cy="248.84" r="0.601846" fill="white" fill-opacity="0.5"/>
<circle cx="55.6569" cy="6.10927" r="0.604139" fill="white" fill-opacity="0.5"/>
<circle cx="239.872" cy="30.6716" r="0.642768" fill="white" fill-opacity="0.6"/>
<circle cx="28.0584" cy="134.159" r="0.532037" fill="white" fill-opacity="0.3"/>
<circle cx="292.959" cy="168.339" r="0.679054" fill="white" fill-opacity="0.5"/>
<circle cx="36.2332" cy="55.2513" r="0.699547" fill="white" fill-opacity="0.5"/>
<circle cx="287.471" cy="277.961" r="0.695983" fill="white" fill-opacity="0.4"/>
<circle cx="278.905" cy="111.744" r="0.638169" fill="white" fill-opacity="0.5"/>
<circle cx="250.398" cy="9.6671" r="0.658799" fill="white" fill-opacity="0.5"/>
<circle cx="190.184" cy="296.287" r="0.503798" fill="white" fill-opacity="0.3"/>
<circle cx="22.1966" cy="10.1847" r="0.675652" fill="white" fill-opacity="0.4"/>
<circle cx="137.69" cy="218.267" r="0.559227" fill="white" fill-opacity="0.5"/>
<circle cx="218.334" cy="26.1498" r="0.625843" fill="white" fill-opacity="0.4"/>
<circle cx="153.889" cy="229.461" r="0.742326" fill="white" fill-opacity="0.5"/>
<circle cx="118.741" cy="66.6911" r="0.62787" fill="white" fill-opacity="0.5"/>
<circle cx="110.302" cy="179.368" r="0.696971" fill="white" fill-opacity="0.5"/>
<circle cx="141.192" cy="35.5907" r="0.557205" fill="white" fill-opacity="0.4"/>
<circle cx="36.1036" cy="43.1107" r="0.569953" fill="white" fill-opacity="0.5"/>
<circle cx="49.2672" cy="134.849" r="0.720765" fill="white" fill-opacity="0.4"/>
<circle cx="214.224" cy="149.161" r="0.519102" fill="white" fill-opacity="0.4"/>
<circle cx="84.5868" cy="220.717" r="0.506712" fill="white" fill-opacity="0.3"/>
<circle cx="224.811" cy="64.1571" r="0.59652" fill="white" fill-opacity="0.3"/>
<circle cx="0.675435" cy="176.844" r="0.675435" fill="white" fill-opacity="0.6"/>
<circle cx="273.479" cy="113.826" r="0.717191" fill="white" fill-opacity="0.5"/>
<circle cx="135.726" cy="64.1568" r="0.596264" fill="white" fill-opacity="0.4"/>
<circle cx="120.762" cy="214.351" r="0.647017" fill="white" fill-opacity="0.3"/>
<circle cx="62.1549" cy="81.6727" r="0.595348" fill="white" fill-opacity="0.3"/>
<circle cx="61.1876" cy="306.423" r="0.630027" fill="white" fill-opacity="0.6"/>
<circle cx="190.348" cy="203.861" r="0.666921" fill="white" fill-opacity="0.4"/>
<circle cx="152.664" cy="108.122" r="0.519291" fill="white" fill-opacity="0.4"/>
<circle cx="131.264" cy="196.327" r="0.639814" fill="white" fill-opacity="0.6"/>
<circle cx="26.6686" cy="82.7228" r="0.644224" fill="white" fill-opacity="0.4"/>
<circle cx="30.0551" cy="288.303" r="0.526784" fill="white" fill-opacity="0.4"/>
<circle cx="83.7047" cy="7.63118" r="0.62508" fill="white" fill-opacity="0.4"/>
<circle cx="170.788" cy="248.362" r="0.624424" fill="white" fill-opacity="0.3"/>
<circle cx="240.883" cy="126.775" r="0.654355" fill="white" fill-opacity="0.3"/>
<circle cx="144.236" cy="282.868" r="0.597466" fill="white" fill-opacity="0.5"/>
<circle cx="4.56126" cy="86.1389" r="0.557351" fill="white" fill-opacity="0.4"/>
<circle cx="257.265" cy="71.0871" r="0.519713" fill="white" fill-opacity="0.3"/>
<circle cx="293.474" cy="127.815" r="0.693638" fill="white" fill-opacity="0.5"/>
<circle cx="296.787" cy="68.0668" r="0.502152" fill="white" fill-opacity="0.6"/>
<circle cx="19.0979" cy="169.742" r="0.580312" fill="white" fill-opacity="0.5"/>
<circle cx="235.878" cy="156.301" r="0.652264" fill="white" fill-opacity="0.3"/>
<circle cx="154.317" cy="64.731" r="0.669732" fill="white" fill-opacity="0.5"/>
<circle cx="154.695" cy="49.5937" r="0.546781" fill="white" fill-opacity="0.5"/>
<circle cx="7.52337" cy="216.725" r="0.517506" fill="white" fill-opacity="0.4"/>
<circle cx="298.37" cy="149.227" r="0.585141" fill="white" fill-opacity="0.5"/>
</g>
<g opacity="0.1" clip-path="url(#clip2_25_4593)">
<g clip-path="url(#clip3_25_4593)">
<path d="M0 0V487.216" stroke="white" stroke-opacity="0.76" stroke-width="0.3695"/>
<path d="M23.6479 0V487.216" stroke="white" stroke-opacity="0.76" stroke-width="0.3695"/>
<path d="M47.2959 0V487.216" stroke="white" stroke-opacity="0.76" stroke-width="0.3695"/>
<path d="M70.9438 0V487.216" stroke="white" stroke-opacity="0.76" stroke-width="0.3695"/>
<path d="M94.5918 0V487.216" stroke="white" stroke-opacity="0.76" stroke-width="0.3695"/>
<path d="M118.24 0V487.216" stroke="white" stroke-opacity="0.76" stroke-width="0.3695"/>
<path d="M141.888 0V487.216" stroke="white" stroke-opacity="0.76" stroke-width="0.3695"/>
<path d="M165.536 0V487.216" stroke="white" stroke-opacity="0.76" stroke-width="0.3695"/>
<path d="M189.184 0V487.216" stroke="white" stroke-opacity="0.76" stroke-width="0.3695"/>
<path d="M212.832 0V487.216" stroke="white" stroke-opacity="0.76" stroke-width="0.3695"/>
<path d="M236.48 0V487.216" stroke="white" stroke-opacity="0.76" stroke-width="0.3695"/>
<path d="M260.128 0V487.216" stroke="white" stroke-opacity="0.76" stroke-width="0.3695"/>
<path d="M283.776 0V487.216" stroke="white" stroke-opacity="0.76" stroke-width="0.3695"/>
</g>
<path d="M0 0L704.687 0" stroke="white" stroke-opacity="0.76" stroke-width="0.3695"/>
<path d="M0 23.6479L704.687 23.6479" stroke="white" stroke-opacity="0.76" stroke-width="0.3695"/>
<path d="M0 47.2959L704.687 47.2959" stroke="white" stroke-opacity="0.76" stroke-width="0.3695"/>
<path d="M0 70.9441L704.687 70.9441" stroke="white" stroke-opacity="0.76" stroke-width="0.3695"/>
<path d="M0 94.592L704.687 94.592" stroke="white" stroke-opacity="0.76" stroke-width="0.3695"/>
<path d="M0 118.24L704.687 118.24" stroke="white" stroke-opacity="0.76" stroke-width="0.3695"/>
<path d="M0 141.888L704.687 141.888" stroke="white" stroke-opacity="0.76" stroke-width="0.3695"/>
<path d="M0 165.536L704.687 165.536" stroke="white" stroke-opacity="0.76" stroke-width="0.3695"/>
<path d="M0 189.184L704.687 189.184" stroke="white" stroke-opacity="0.76" stroke-width="0.3695"/>
<path d="M0 212.832L704.687 212.832" stroke="white" stroke-opacity="0.76" stroke-width="0.3695"/>
<path d="M0 236.48L704.687 236.48" stroke="white" stroke-opacity="0.76" stroke-width="0.3695"/>
<path d="M0 260.128L704.687 260.128" stroke="white" stroke-opacity="0.76" stroke-width="0.3695"/>
<path d="M0 283.776L704.687 283.776" stroke="white" stroke-opacity="0.76" stroke-width="0.3695"/>
</g>
</g>
<defs>
<clipPath id="clip0_25_4593">
<rect width="307" height="307" fill="white"/>
</clipPath>
<clipPath id="clip1_25_4593">
<rect width="720.315" height="449.397" fill="white"/>
</clipPath>
<clipPath id="clip2_25_4593">
<rect width="705" height="449" fill="white"/>
</clipPath>
<clipPath id="clip3_25_4593">
<rect width="704.687" height="455.518" fill="white"/>
</clipPath>
</defs>
</svg>
